<svg width="64" height="64" viewBox="0 0 64 64" fill="none" xmlns="http://www.w3.org/2000/svg">
<rect width="64" height="64" rx="12" fill="white"/>
<path fill-rule="evenodd" clip-rule="evenodd" d="M23.9998 24V22.2227C23.9998 20.9947 24.9944 20 26.2224 20H41.7786C43.0052 20 43.9999 20.9947 43.9999 22.2227V37.7788C43.9999 39.0055 43.0052 40.0002 41.7772 40.0002H39.9999" fill="#1CA5AE"/>
<path d="M23.9998 24V22.2227C23.9998 20.9947 24.9944 20 26.2224 20H41.7786C43.0052 20 43.9999 20.9947 43.9999 22.2227V37.7788C43.9999 39.0055 43.0052 40.0002 41.7772 40.0002H39.9999" stroke="#1CA5AE" stroke-width="1.5" stroke-linecap="round" stroke-linejoin="round"/>
<path fill-rule="evenodd" clip-rule="evenodd" d="M37.7775 44H22.2227C20.9947 44 20 43.0053 20 41.7773V26.2225C20 24.9945 20.9947 23.9998 22.2227 23.9998H37.7788C39.0055 23.9998 40.0002 24.9945 40.0002 26.2225V41.7786C40.0002 43.0053 39.0055 44 37.7775 44Z" fill="#4DCBD3" stroke="#4DCBD3" stroke-width="1.5" stroke-linecap="round" stroke-linejoin="round"/>
<path fill-rule="evenodd" clip-rule="evenodd" d="M34.3325 40.6633H25.6693C25.3013 40.6633 25.0029 40.365 25.0029 39.997V39.4558C25.0073 37.9163 26.2543 36.6694 27.7938 36.665H32.208C33.7475 36.6694 34.9945 37.9163 34.9988 39.4558V39.997C34.9988 40.365 34.7005 40.6633 34.3325 40.6633Z" fill="#FFDD76" stroke="#FFDD76" stroke-width="1.5" stroke-linecap="round" stroke-linejoin="round"/>
<path fill-rule="evenodd" clip-rule="evenodd" d="M30.0008 33.3326C28.53 33.3326 27.3372 32.1414 27.3352 30.6706C27.3333 29.1998 28.5229 28.0054 29.9937 28.0015C31.4644 27.9976 32.6605 29.1856 32.6664 30.6564C32.6692 31.3652 32.3896 32.0459 31.8894 32.5481C31.3892 33.0503 30.7096 33.3326 30.0008 33.3326Z" fill="#FFDD76" stroke="#FFDD76" stroke-width="1.5" stroke-linecap="round" stroke-linejoin="round"/>
</svg>
