<svg width="20" height="21" viewBox="0 0 20 21" fill="none" xmlns="http://www.w3.org/2000/svg">
<path d="M9.99918 6.5874C8.97721 6.5874 7.9971 6.99338 7.27446 7.71602C6.55182 8.43866 6.14584 9.41877 6.14584 10.4407C6.14584 11.4627 6.55182 12.4428 7.27446 13.1655C7.9971 13.8881 8.97721 14.2941 9.99918 14.2941C11.0211 14.2941 12.0013 13.8881 12.7239 13.1655C13.4465 12.4428 13.8525 11.4627 13.8525 10.4407C13.8525 9.41877 13.4465 8.43866 12.7239 7.71602C12.0013 6.99338 11.0211 6.5874 9.99918 6.5874ZM9.99918 12.9432C9.33525 12.9432 8.69852 12.6795 8.22905 12.21C7.75959 11.7406 7.49584 11.1038 7.49584 10.4399C7.49584 9.77598 7.75959 9.13924 8.22905 8.66978C8.69852 8.20031 9.33525 7.93657 9.99918 7.93657C10.6631 7.93657 11.2998 8.20031 11.7693 8.66978C12.2388 9.13924 12.5025 9.77598 12.5025 10.4399C12.5025 11.1038 12.2388 11.7406 11.7693 12.21C11.2998 12.6795 10.6631 12.9432 9.99918 12.9432Z" fill="#6B7481"/>
<path d="M14.005 7.34415C14.5011 7.34415 14.9033 6.94195 14.9033 6.44582C14.9033 5.94968 14.5011 5.54749 14.005 5.54749C13.5089 5.54749 13.1067 5.94968 13.1067 6.44582C13.1067 6.94195 13.5089 7.34415 14.005 7.34415Z" fill="#6B7481"/>
<path d="M17.1108 5.53243C16.9179 5.03424 16.6231 4.58183 16.2453 4.20414C15.8675 3.82645 15.4149 3.53182 14.9167 3.33909C14.3336 3.12022 13.7177 3.00188 13.095 2.98909C12.2925 2.95409 12.0383 2.94409 10.0033 2.94409C7.96835 2.94409 7.70751 2.94409 6.91168 2.98909C6.2895 3.00122 5.67398 3.11959 5.09168 3.33909C4.59329 3.53159 4.14065 3.82615 3.76279 4.20387C3.38493 4.58158 3.0902 5.03411 2.89751 5.53243C2.6786 6.11544 2.56052 6.73146 2.54835 7.35409C2.51251 8.15576 2.50168 8.40993 2.50168 10.4458C2.50168 12.4808 2.50168 12.7399 2.54835 13.5374C2.56085 14.1608 2.67835 14.7758 2.89751 15.3599C3.09074 15.8581 3.38576 16.3104 3.76371 16.6881C4.14166 17.0657 4.59423 17.3604 5.09251 17.5533C5.67371 17.7809 6.28949 17.9077 6.91334 17.9283C7.71585 17.9633 7.97001 17.9741 10.005 17.9741C12.04 17.9741 12.3008 17.9741 13.0967 17.9283C13.7193 17.9156 14.3352 17.7975 14.9183 17.5791C15.4165 17.3859 15.8689 17.091 16.2467 16.7132C16.6244 16.3354 16.9193 15.8831 17.1125 15.3849C17.3317 14.8016 17.4492 14.1866 17.4617 13.5633C17.4975 12.7616 17.5083 12.5074 17.5083 10.4716C17.5083 8.43576 17.5083 8.17743 17.4617 7.37993C17.452 6.74849 17.3333 6.12347 17.1108 5.53243ZM16.0958 13.4758C16.0905 13.956 16.0028 14.4318 15.8367 14.8824C15.7115 15.2065 15.5199 15.5008 15.2742 15.7463C15.0285 15.9919 14.7341 16.1833 14.41 16.3083C13.9644 16.4736 13.4936 16.5613 13.0183 16.5674C12.2267 16.6041 12.0033 16.6133 9.97335 16.6133C7.94168 16.6133 7.73418 16.6133 6.92751 16.5674C6.45245 16.5616 5.98195 16.4739 5.53668 16.3083C5.21142 16.1841 4.91585 15.993 4.66909 15.7474C4.42233 15.5018 4.22987 15.2071 4.10418 14.8824C3.94038 14.4366 3.85277 13.9665 3.84501 13.4916C3.80918 12.6999 3.80085 12.4766 3.80085 10.4466C3.80085 8.41576 3.80085 8.20826 3.84501 7.40076C3.8504 6.92078 3.93806 6.44528 4.10418 5.99493C4.35835 5.33743 4.87918 4.81993 5.53668 4.56826C5.98217 4.40338 6.45253 4.31573 6.92751 4.30909C7.72001 4.27326 7.94251 4.26326 9.97335 4.26326C12.0042 4.26326 12.2125 4.26326 13.0183 4.30909C13.4937 4.31481 13.9645 4.40248 14.41 4.56826C14.7341 4.69349 15.0285 4.88509 15.2742 5.13078C15.5198 5.37647 15.7115 5.67082 15.8367 5.99493C16.0005 6.44072 16.0881 6.91089 16.0958 7.38576C16.1317 8.17826 16.1408 8.40076 16.1408 10.4316C16.1408 12.4616 16.1408 12.6799 16.105 13.4766H16.0958V13.4758Z" fill="#6B7481"/>
</svg>
