<svg width="20" height="21" viewBox="0 0 20 21" fill="none" xmlns="http://www.w3.org/2000/svg">
<path d="M4.1525 6.43744C5.1595 6.43744 5.97583 5.6211 5.97583 4.6141C5.97583 3.60711 5.1595 2.79077 4.1525 2.79077C3.1455 2.79077 2.32916 3.60711 2.32916 4.6141C2.32916 5.6211 3.1455 6.43744 4.1525 6.43744Z" fill="#6B7481"/>
<path d="M7.6975 7.81909V17.9349H10.8383V12.9324C10.8383 11.6124 11.0867 10.3341 12.7233 10.3341C14.3375 10.3341 14.3575 11.8433 14.3575 13.0158V17.9358H17.5V12.3883C17.5 9.66326 16.9133 7.56909 13.7283 7.56909C12.1992 7.56909 11.1742 8.40826 10.755 9.20243H10.7125V7.81909H7.6975ZM2.57916 7.81909H5.725V17.9349H2.57916V7.81909Z" fill="#6B7481"/>
</svg>
