<svg width="68" height="68" viewBox="0 0 68 68" fill="none" xmlns="http://www.w3.org/2000/svg">
<g filter="url(#filter0_b)">
<rect width="68" height="68" rx="20" fill="#B2E7FE" fill-opacity="0.08"/>
<rect x="0.25" y="0.25" width="67.5" height="67.5" rx="19.75" stroke="url(#paint0_linear)" stroke-width="0.5"/>
<rect x="0.25" y="0.25" width="67.5" height="67.5" rx="19.75" stroke="url(#paint1_linear)" stroke-width="0.5"/>
</g>
<g filter="url(#filter1_bd)">
<path fill-rule="evenodd" clip-rule="evenodd" d="M21.1228 31.8823C22.2924 33.0507 22.2924 34.9553 21.1228 36.1237C19.9533 37.2921 18.0467 37.2921 16.8772 36.1237C15.7076 34.9553 15.7076 33.0507 16.8772 31.8823C18.0467 30.7059 19.9453 30.7059 21.1228 31.8823ZM31.1228 31.8823C32.2924 33.0507 32.2924 34.9553 31.1228 36.1237C29.9533 37.2921 28.0467 37.2921 26.8772 36.1237C25.7076 34.9553 25.7076 33.0507 26.8772 31.8823C28.0467 30.7059 29.9533 30.7059 31.1228 31.8823ZM41.1228 36.1237C42.2924 34.9553 42.2924 33.0507 41.1228 31.8823C39.9533 30.7059 38.0467 30.7059 36.8772 31.8823C35.7076 33.0507 35.7076 34.9553 36.8772 36.1237C38.0467 37.2921 39.9533 37.2921 41.1228 36.1237Z" fill="url(#paint2_linear)"/>
</g>
<g filter="url(#filter2_bd)">
<rect x="48" y="22" width="4" height="24" rx="2" fill="url(#paint3_linear)"/>
</g>
<defs>
<filter id="filter0_b" x="-24" y="-24" width="116" height="116" filterUnits="userSpaceOnUse" color-interpolation-filters="sRGB">
<feFlood flood-opacity="0" result="BackgroundImageFix"/>
<feGaussianBlur in="BackgroundImage" stdDeviation="12"/>
<feComposite in2="SourceAlpha" operator="in" result="effect1_backgroundBlur"/>
<feBlend mode="normal" in="SourceGraphic" in2="effect1_backgroundBlur" result="shape"/>
</filter>
<filter id="filter1_bd" x="2" y="17" width="55" height="35" filterUnits="userSpaceOnUse" color-interpolation-filters="sRGB">
<feFlood flood-opacity="0" result="BackgroundImageFix"/>
<feGaussianBlur in="BackgroundImage" stdDeviation="7"/>
<feComposite in2="SourceAlpha" operator="in" result="effect1_backgroundBlur"/>
<feColorMatrix in="SourceAlpha" type="matrix" values="0 0 0 0 0 0 0 0 0 0 0 0 0 0 0 0 0 0 127 0"/>
<feOffset dx="5" dy="5"/>
<feGaussianBlur stdDeviation="5"/>
<feColorMatrix type="matrix" values="0 0 0 0 0.577356 0 0 0 0 0.359375 0 0 0 0 0.9375 0 0 0 0.12 0"/>
<feBlend mode="normal" in2="effect1_backgroundBlur" result="effect2_dropShadow"/>
<feBlend mode="normal" in="SourceGraphic" in2="effect2_dropShadow" result="shape"/>
</filter>
<filter id="filter2_bd" x="34" y="8" width="33" height="53" filterUnits="userSpaceOnUse" color-interpolation-filters="sRGB">
<feFlood flood-opacity="0" result="BackgroundImageFix"/>
<feGaussianBlur in="BackgroundImage" stdDeviation="7"/>
<feComposite in2="SourceAlpha" operator="in" result="effect1_backgroundBlur"/>
<feColorMatrix in="SourceAlpha" type="matrix" values="0 0 0 0 0 0 0 0 0 0 0 0 0 0 0 0 0 0 127 0"/>
<feOffset dx="5" dy="5"/>
<feGaussianBlur stdDeviation="5"/>
<feColorMatrix type="matrix" values="0 0 0 0 0.577356 0 0 0 0 0.359375 0 0 0 0 0.9375 0 0 0 0.12 0"/>
<feBlend mode="normal" in2="effect1_backgroundBlur" result="effect2_dropShadow"/>
<feBlend mode="normal" in="SourceGraphic" in2="effect2_dropShadow" result="shape"/>
</filter>
<linearGradient id="paint0_linear" x1="12" y1="61.5" x2="62.9207" y2="7.4253" gradientUnits="userSpaceOnUse">
<stop stop-color="#DB93FF" stop-opacity="0.16"/>
<stop offset="1" stop-color="white" stop-opacity="0"/>
</linearGradient>
<linearGradient id="paint1_linear" x1="12" y1="61.5" x2="62.9207" y2="7.4253" gradientUnits="userSpaceOnUse">
<stop stop-color="white" stop-opacity="0"/>
<stop offset="1" stop-color="white" stop-opacity="0.16"/>
</linearGradient>
<linearGradient id="paint2_linear" x1="29" y1="1.00001" x2="-32.3723" y2="20.4106" gradientUnits="userSpaceOnUse">
<stop stop-color="white" stop-opacity="0.88"/>
<stop offset="1" stop-color="white" stop-opacity="0"/>
</linearGradient>
<linearGradient id="paint3_linear" x1="52" y1="-98.4998" x2="41.6817" y2="-98.3886" gradientUnits="userSpaceOnUse">
<stop stop-color="white" stop-opacity="0.88"/>
<stop offset="1" stop-color="white" stop-opacity="0"/>
</linearGradient>
</defs>
</svg>
