<svg width="200" height="50" viewBox="0 0 200 50" fill="none" xmlns="http://www.w3.org/2000/svg">
<path fill-rule="evenodd" clip-rule="evenodd" d="M189.133 22.8719V0.133301H192.755V22.8719C192.755 24.9649 194.377 26.6617 196.378 26.6617H200V30.4514H196.378C192.376 30.4514 189.133 27.058 189.133 22.8719Z" fill="white"/>
<path fill-rule="evenodd" clip-rule="evenodd" d="M200 11.5027H185.51V7.71289H200V11.5027Z" fill="white"/>
<path fill-rule="evenodd" clip-rule="evenodd" d="M87.7044 30.4514L87.7044 0.133301L91.3268 0.133301L91.3268 30.4514L87.7044 30.4514Z" fill="white"/>
<path fill-rule="evenodd" clip-rule="evenodd" d="M91.3268 19.0822C91.3268 23.2683 94.5705 26.6617 98.5717 26.6617C102.573 26.6617 105.817 23.2683 105.817 19.0822C105.817 14.8961 102.573 11.5027 98.5717 11.5027C94.5705 11.5027 91.3268 14.8961 91.3268 19.0822ZM98.5717 7.71289C92.5699 7.71289 87.7044 12.8031 87.7044 19.0822C87.7044 25.3613 92.5699 30.4515 98.5717 30.4515C104.574 30.4515 109.439 25.3613 109.439 19.0822C109.439 12.8031 104.574 7.71289 98.5717 7.71289Z" fill="white"/>
<path fill-rule="evenodd" clip-rule="evenodd" d="M134.796 11.5027H123.929C119.928 11.5027 116.684 14.8961 116.684 19.0822C116.684 23.2682 119.928 26.6617 123.929 26.6617H134.796C138.797 26.6617 142.041 23.2683 142.041 19.0822C142.041 14.8961 138.797 11.5027 134.796 11.5027ZM123.929 7.71289C117.927 7.71289 113.062 12.8031 113.062 19.0822C113.062 25.3613 117.927 30.4515 123.929 30.4515H134.796C140.798 30.4515 145.663 25.3613 145.663 19.0822C145.663 12.8031 140.798 7.71289 134.796 7.71289H123.929Z" fill="url(#paint0_linear)"/>
<path fill-rule="evenodd" clip-rule="evenodd" d="M145.663 11.5022H134.796C130.795 11.5022 127.551 14.8956 127.551 19.0817C127.551 23.2678 130.795 26.6612 134.796 26.6612H145.664C149.665 26.6612 152.908 23.2678 152.908 19.0817C152.908 14.8956 149.665 11.5022 145.663 11.5022ZM134.796 7.7124C128.794 7.7124 123.929 12.8026 123.929 19.0817C123.929 25.3608 128.794 30.451 134.796 30.451H145.664C151.665 30.451 156.531 25.3608 156.531 19.0817C156.531 12.8026 151.665 7.7124 145.663 7.7124H134.796Z" fill="white"/>
<path fill-rule="evenodd" clip-rule="evenodd" d="M160.494 14.345C160.494 10.6822 163.332 7.71289 166.833 7.71289H179.85V11.5027H166.833C165.333 11.5027 164.116 12.7752 164.116 14.345C164.116 15.9148 165.333 17.1873 166.833 17.1873H170.329V20.9771H166.833C163.332 20.9771 160.494 18.0078 160.494 14.345Z" fill="white"/>
<path fill-rule="evenodd" clip-rule="evenodd" d="M180.805 23.819C180.805 20.1562 177.967 17.1869 174.466 17.1869H169.197V20.9767H174.466C175.967 20.9767 177.183 22.2492 177.183 23.819C177.183 25.3888 175.967 26.6613 174.466 26.6613H160.832V30.4511H174.466C177.967 30.4511 180.805 27.4818 180.805 23.819Z" fill="white"/>
<g opacity="0.5">
<path fill-rule="evenodd" clip-rule="evenodd" d="M65.7779 0V30.8694H63.2288V27.1662C62.5057 27.9637 61.6736 28.6517 60.7537 29.2037C58.5415 30.5313 55.9625 30.9881 53.4668 30.4944C50.9711 30.0007 48.7171 28.5878 47.0982 26.5024C45.4792 24.417 44.5982 21.7914 44.6087 19.0837C44.6191 16.3761 45.5206 13.7583 47.1556 11.6872C48.7906 9.61615 51.0555 8.22325 53.5549 7.75159C56.0544 7.27993 58.6297 7.75946 60.8316 9.1065C61.7209 9.65053 62.5264 10.3221 63.2288 11.0968V0H65.7779ZM63.2288 22.2826L63.1879 22.266C62.4995 24.202 61.1956 25.8186 59.5039 26.8338C57.8122 27.849 55.84 28.1983 53.9316 27.8208C52.0231 27.4432 50.2994 26.3628 49.0614 24.7681C47.8234 23.1733 47.1497 21.1655 47.1577 19.095C47.1657 17.0244 47.855 15.0226 49.1054 13.4388C50.3557 11.8551 52.0876 10.7899 53.999 10.4292C55.9103 10.0685 57.8797 10.4352 59.5635 11.4653C61.2473 12.4954 62.5385 14.1235 63.2119 16.0654L63.2288 16.0588V22.2826Z" fill="url(#paint1_linear)"/>
<path fill-rule="evenodd" clip-rule="evenodd" d="M41.5133 19.3258C41.5133 25.7083 36.6629 30.8823 30.6797 30.8823C24.6966 30.8823 19.8462 25.7083 19.8462 19.3258C19.8462 12.9432 24.6966 7.76916 30.6797 7.76916C36.6629 7.76916 41.5133 12.9432 41.5133 19.3258ZM38.9642 19.3258C38.9642 24.2065 35.2551 28.1631 30.6797 28.1631C26.1044 28.1631 22.3953 24.2065 22.3953 19.3258C22.3953 14.445 26.1044 10.4884 30.6797 10.4884C35.2551 10.4884 38.9642 14.445 38.9642 19.3258Z" fill="url(#paint2_linear)"/>
<path d="M10.9249 10.4889C9.41698 10.4712 7.93315 10.8928 6.63335 11.7084C5.33354 12.5239 4.26707 13.7025 3.5489 15.117C2.83073 16.5315 2.4881 18.1282 2.55796 19.7351C2.62781 21.342 3.1075 22.8981 3.9453 24.2356C4.78311 25.5732 5.94725 26.6414 7.31223 27.3251C8.67721 28.0089 10.1913 28.2822 11.6911 28.1157C13.191 27.9491 14.6198 27.3491 15.8236 26.3801L17.359 28.5507C15.7849 29.8178 13.9164 30.6025 11.955 30.8203C9.99363 31.038 8.01373 30.6806 6.22876 29.7864C4.44379 28.8923 2.92144 27.4954 1.82585 25.7464C0.730262 23.9973 0.10298 21.9624 0.011632 19.8611C-0.0797163 17.7598 0.368334 15.6717 1.30748 13.822C2.24663 11.9722 3.64125 10.4311 5.34099 9.36455C7.04073 8.29804 8.98112 7.74666 10.953 7.76986C12.9248 7.79306 14.8533 8.38995 16.5306 9.49619L15.1901 11.809C13.9075 10.9631 12.4328 10.5066 10.9249 10.4889Z" fill="url(#paint3_linear)"/>
<path fill-rule="evenodd" clip-rule="evenodd" d="M77.6562 27.1049C79.245 27.7532 80.9823 27.7563 82.5728 27.1139C84.1665 26.4702 85.5366 25.2075 86.4155 23.5122L88.6461 24.8283C87.4836 27.0706 85.6508 28.7782 83.4754 29.6569C81.3005 30.5354 78.9179 30.5311 76.7455 29.6446C74.5727 28.758 72.745 27.0436 71.589 24.7971C70.4328 22.5502 70.0248 19.9184 70.4392 17.3665C70.8536 14.8147 72.0627 12.5126 73.8478 10.8631C75.6324 9.21402 77.8785 8.32228 80.19 8.33914C82.5015 8.35602 84.737 9.28048 86.5023 10.9556C88.268 12.6312 89.4499 14.951 89.8343 17.5087L90.0709 19.0835H72.8335C72.7937 20.6235 73.1349 22.1504 73.8235 23.4886C74.6976 25.1873 76.0642 26.4552 77.6562 27.1049ZM75.5168 12.9184C74.5318 13.8285 73.7715 15.0167 73.3149 16.3643H86.9363C86.4916 15.0516 85.7582 13.889 84.808 12.9873C83.4956 11.7418 81.853 11.0705 80.1726 11.0583C78.4922 11.046 76.8427 11.6932 75.5168 12.9184Z" fill="url(#paint4_linear)"/>
</g>
<g clip-path="url(#clip0)">
<path d="M1 38.5026V47.0588H2.18472V40.8631H2.26128L4.6952 47.0463H5.67843L8.11233 40.8673H8.18893V47.0588H9.37361V38.5026H7.86251L5.23517 45.1537H5.13846L2.51112 38.5026H1ZM12.4701 47.2008C13.4936 47.2008 14.0698 46.6619 14.2995 46.1814H14.3479V47.0588H15.5245V42.7974C15.5245 40.9299 14.1061 40.5581 13.1228 40.5581C12.0026 40.5581 10.9711 41.026 10.5681 42.1958L11.7004 42.4632C11.8777 42.0078 12.329 41.5691 13.139 41.5691C13.9167 41.5691 14.3157 41.9911 14.3157 42.718V42.7473C14.3157 43.2027 13.8643 43.1943 12.7521 43.328C11.5795 43.4701 10.3786 43.7876 10.3786 45.2456C10.3786 46.5073 11.2934 47.2008 12.4701 47.2008ZM12.732 46.1981C12.051 46.1981 11.5594 45.8806 11.5594 45.2623C11.5594 44.5939 12.1316 44.3557 12.8287 44.2597C13.2196 44.2053 14.1464 44.0967 14.3196 43.9171V44.7443C14.3196 45.5047 13.7354 46.1981 12.732 46.1981ZM19.6002 40.6417H18.3308V39.1042H17.1259V40.6417H16.2193V41.6443H17.1259V45.4336C17.1219 46.5992 17.9803 47.1632 18.9313 47.1423C19.314 47.1382 19.572 47.063 19.713 47.0086L19.4954 45.9767C19.4148 45.9934 19.2657 46.0311 19.0723 46.0311C18.6814 46.0311 18.3308 45.8974 18.3308 45.1746V41.6443H19.6002V40.6417ZM23.1157 47.1883C24.4656 47.1883 25.4206 46.4989 25.6947 45.4545L24.5542 45.2414C24.3367 45.8472 23.8128 46.1564 23.1278 46.1564C22.0962 46.1564 21.4031 45.4628 21.3708 44.2262H25.7713V43.7834C25.7713 41.4647 24.4334 40.5581 23.0311 40.5581C21.3064 40.5581 20.17 41.9201 20.17 43.892C20.17 45.8848 21.2903 47.1883 23.1157 47.1883ZM21.3749 43.2904C21.4233 42.3796 22.0599 41.59 23.0391 41.59C23.974 41.59 24.5865 42.3086 24.5906 43.2904H21.3749ZM26.6896 47.0588H27.8945V43.14C27.8945 42.3003 28.5191 41.6945 29.3734 41.6945C29.6233 41.6945 29.9053 41.7404 30.002 41.7697V40.5748C29.8811 40.5581 29.6434 40.5456 29.4903 40.5456C28.7649 40.5456 28.1443 40.9717 27.9186 41.6611H27.8542V40.6417H26.6896V47.0588ZM30.6262 47.0588H31.8311V40.6417H30.6262V47.0588ZM31.2347 39.6515C31.6498 39.6515 31.9963 39.3173 31.9963 38.9079C31.9963 38.4985 31.6498 38.1601 31.2347 38.1601C30.8157 38.1601 30.4731 38.4985 30.4731 38.9079C30.4731 39.3173 30.8157 39.6515 31.2347 39.6515ZM34.8349 47.2008C35.8584 47.2008 36.4346 46.6619 36.6643 46.1814H36.7127V47.0588H37.8893V42.7974C37.8893 40.9299 36.4709 40.5581 35.4876 40.5581C34.3674 40.5581 33.3358 41.026 32.9328 42.1958L34.0652 42.4632C34.2425 42.0078 34.6938 41.5691 35.5037 41.5691C36.2815 41.5691 36.6804 41.9911 36.6804 42.718V42.7473C36.6804 43.2027 36.2291 43.1943 35.1169 43.328C33.9443 43.4701 32.7435 43.7876 32.7435 45.2456C32.7435 46.5073 33.6582 47.2008 34.8349 47.2008ZM35.0968 46.1981C34.4158 46.1981 33.9242 45.8806 33.9242 45.2623C33.9242 44.5939 34.4964 44.3557 35.1935 44.2597C35.5844 44.2053 36.5112 44.0967 36.6845 43.9171V44.7443C36.6845 45.5047 36.1002 46.1981 35.0968 46.1981ZM40.2806 38.5026H39.0757V47.0588H40.2806V38.5026ZM46.3848 47.1842C47.5131 47.1842 47.9564 46.4697 48.174 46.0603H48.2747V47.0588H49.4513V38.5026H48.2465V41.6819H48.174C47.9564 41.2851 47.5453 40.5581 46.3928 40.5581C44.8979 40.5581 43.7977 41.7822 43.7977 43.8628C43.7977 45.9392 44.8817 47.1842 46.3848 47.1842ZM46.6508 46.1188C45.5748 46.1188 45.0147 45.137 45.0147 43.8502C45.0147 42.576 45.5627 41.6193 46.6508 41.6193C47.7025 41.6193 48.2666 42.5092 48.2666 43.8502C48.2666 45.1997 47.6904 46.1188 46.6508 46.1188ZM53.4202 47.1883C54.7701 47.1883 55.7252 46.4989 55.9992 45.4545L54.8588 45.2414C54.6412 45.8472 54.1174 46.1564 53.4323 46.1564C52.4007 46.1564 51.7076 45.4628 51.6754 44.2262H56.0757V43.7834C56.0757 41.4647 54.7379 40.5581 53.3356 40.5581C51.6109 40.5581 50.4745 41.9201 50.4745 43.892C50.4745 45.8848 51.5947 47.1883 53.4202 47.1883ZM51.6794 43.2904C51.7277 42.3796 52.3644 41.59 53.3437 41.59C54.2785 41.59 54.891 42.3086 54.8951 43.2904H51.6794ZM62.2464 47.1883C63.5964 47.1883 64.5514 46.4989 64.8254 45.4545L63.685 45.2414C63.4674 45.8472 62.9436 46.1564 62.2586 46.1564C61.2269 46.1564 60.5338 45.4628 60.5016 44.2262H64.902V43.7834C64.902 41.4647 63.5642 40.5581 62.1618 40.5581C60.4371 40.5581 59.3008 41.9201 59.3008 43.892C59.3008 45.8848 60.421 47.1883 62.2464 47.1883ZM60.5056 43.2904C60.5539 42.3796 61.1907 41.59 62.1699 41.59C63.1047 41.59 63.7173 42.3086 63.7213 43.2904H60.5056ZM70.4585 42.2084C70.2087 41.2099 69.4552 40.5581 68.1173 40.5581C66.719 40.5581 65.7277 41.3227 65.7277 42.459C65.7277 43.3698 66.2596 43.9756 67.4202 44.2429L68.4678 44.4811C69.0642 44.6189 69.3423 44.8947 69.3423 45.2958C69.3423 45.7929 68.8305 46.1814 68.0408 46.1814C67.3194 46.1814 66.856 45.8597 66.711 45.2289L65.5464 45.4128C65.7478 46.5491 66.6586 47.1883 68.0488 47.1883C69.5438 47.1883 70.5794 46.3653 70.5794 45.2039C70.5794 44.2973 70.0233 43.7374 68.8869 43.4659L67.9037 43.2319C67.2227 43.0648 66.9286 42.8267 66.9326 42.3922C66.9286 41.8992 67.4443 41.5483 68.1294 41.5483C68.8789 41.5483 69.2254 41.9786 69.3665 42.4089L70.4585 42.2084ZM74.3749 40.6417H73.1054V39.1042H71.9011V40.6417H70.9941V41.6443H71.9011V45.4336C71.8969 46.5992 72.755 47.1632 73.7061 47.1423C74.0891 47.1382 74.3465 47.063 74.4876 47.0086L74.2699 45.9767C74.1898 45.9934 74.0408 46.0311 73.8472 46.0311C73.4564 46.0311 73.1054 45.8974 73.1054 45.1746V41.6443H74.3749V40.6417ZM79.2103 44.3975C79.2146 45.4879 78.4323 46.006 77.7557 46.006C77.0103 46.006 76.494 45.4461 76.494 44.573V40.6417H75.2891V44.7234C75.2891 46.3151 76.1316 47.1423 77.3203 47.1423C78.2515 47.1423 78.8841 46.6327 79.1699 45.9475H79.2344V47.0588H80.4188V40.6417H79.2103V44.3975ZM83.9366 47.1842C85.0649 47.1842 85.5082 46.4697 85.7259 46.0603H85.8266V47.0588H87.0032V38.5026H85.7983V41.6819H85.7259C85.5082 41.2851 85.0969 40.5581 83.9444 40.5581C82.4493 40.5581 81.3493 41.7822 81.3493 43.8628C81.3493 45.9392 82.4337 47.1842 83.9366 47.1842ZM84.2025 46.1188C83.1266 46.1188 82.5664 45.137 82.5664 43.8502C82.5664 42.576 83.1146 41.6193 84.2025 41.6193C85.2543 41.6193 85.8181 42.5092 85.8181 43.8502C85.8181 45.1997 85.2422 46.1188 84.2025 46.1188ZM90.9117 47.1883C92.6564 47.1883 93.7968 45.8639 93.7968 43.8795C93.7968 41.8825 92.6564 40.5581 90.9117 40.5581C89.1671 40.5581 88.0266 41.8825 88.0266 43.8795C88.0266 45.8639 89.1671 47.1883 90.9117 47.1883ZM90.9153 46.1397C89.7756 46.1397 89.2437 45.1078 89.2437 43.8753C89.2437 42.647 89.7756 41.6026 90.9153 41.6026C92.0479 41.6026 92.5798 42.647 92.5798 43.8753C92.5798 45.1078 92.0479 46.1397 90.9153 46.1397ZM97.3082 49.4652H98.5132V46.0603H98.5855C98.8032 46.4697 99.2465 47.1842 100.375 47.1842C101.873 47.1842 102.961 45.9392 102.961 43.8628C102.961 41.7822 101.857 40.5581 100.362 40.5581C99.2139 40.5581 98.799 41.2851 98.5855 41.6819H98.4848V40.6417H97.3082V49.4652ZM98.4883 43.8502C98.4883 42.5092 99.0529 41.6193 100.105 41.6193C101.197 41.6193 101.744 42.576 101.744 43.8502C101.744 45.137 101.181 46.1188 100.105 46.1188C99.0692 46.1188 98.4883 45.1997 98.4883 43.8502ZM103.893 47.0588H105.098V43.14C105.098 42.3003 105.722 41.6945 106.577 41.6945C106.827 41.6945 107.109 41.7404 107.205 41.7697V40.5748C107.085 40.5581 106.846 40.5456 106.694 40.5456C105.968 40.5456 105.348 40.9717 105.122 41.6611H105.058V40.6417H103.893V47.0588ZM109.576 47.2008C110.599 47.2008 111.176 46.6619 111.405 46.1814H111.454V47.0588H112.63V42.7974C112.63 40.9299 111.212 40.5581 110.228 40.5581C109.108 40.5581 108.076 41.026 107.673 42.1958L108.806 42.4632C108.983 42.0078 109.434 41.5691 110.244 41.5691C111.022 41.5691 111.421 41.9911 111.421 42.718V42.7473C111.421 43.2027 110.97 43.1943 109.858 43.328C108.685 43.4701 107.484 43.7876 107.484 45.2456C107.484 46.5073 108.399 47.2008 109.576 47.2008ZM109.837 46.1981C109.156 46.1981 108.665 45.8806 108.665 45.2623C108.665 44.5939 109.237 44.3557 109.934 44.2597C110.325 44.2053 111.252 44.0967 111.425 43.9171V44.7443C111.425 45.5047 110.841 46.1981 109.837 46.1981ZM109.793 39.7852H110.756L112.005 37.8593H110.736L109.793 39.7852ZM116.705 40.6417H115.437V39.1042H114.232V40.6417H113.325V41.6443H114.232V45.4336C114.227 46.5992 115.085 47.1632 116.037 47.1423C116.42 47.1382 116.678 47.063 116.819 47.0086L116.601 45.9767C116.52 45.9934 116.371 46.0311 116.178 46.0311C115.787 46.0311 115.437 45.8974 115.437 45.1746V41.6443H116.705V40.6417ZM117.62 47.0588H118.825V40.6417H117.62V47.0588ZM118.229 39.6515C118.644 39.6515 118.99 39.3173 118.99 38.9079C118.99 38.4985 118.644 38.1601 118.229 38.1601C117.81 38.1601 117.467 38.4985 117.467 38.9079C117.467 39.3173 117.81 39.6515 118.229 39.6515ZM122.634 47.1883C124.098 47.1883 125.044 46.2775 125.177 45.0283H124.005C123.851 45.7219 123.332 46.1313 122.643 46.1313C121.623 46.1313 120.966 45.2498 120.966 43.8502C120.966 42.4757 121.635 41.6109 122.643 41.6109C123.408 41.6109 123.876 42.1123 124.005 42.7139H125.177C125.049 41.4187 124.029 40.5581 122.622 40.5581C120.878 40.5581 119.749 41.9201 119.749 43.8795C119.749 45.8138 120.837 47.1883 122.634 47.1883ZM128.654 47.1883C130.4 47.1883 131.539 45.8639 131.539 43.8795C131.539 41.8825 130.4 40.5581 128.654 40.5581C126.91 40.5581 125.769 41.8825 125.769 43.8795C125.769 45.8639 126.91 47.1883 128.654 47.1883ZM128.659 46.1397C127.518 46.1397 126.986 45.1078 126.986 43.8753C126.986 42.647 127.518 41.6026 128.659 41.6026C129.791 41.6026 130.323 42.647 130.323 43.8753C130.323 45.1078 129.791 46.1397 128.659 46.1397Z" fill="url(#paint5_linear)"/>
</g>
<defs>
<linearGradient id="paint0_linear" x1="114.873" y1="23.2153" x2="138.31" y2="24.5229" gradientUnits="userSpaceOnUse">
<stop stop-color="white"/>
<stop offset="1" stop-color="white" stop-opacity="0"/>
</linearGradient>
<linearGradient id="paint1_linear" x1="41.492" y1="19.1085" x2="90.07" y2="18.8951" gradientUnits="userSpaceOnUse">
<stop stop-color="white"/>
<stop offset="1" stop-color="white" stop-opacity="0"/>
</linearGradient>
<linearGradient id="paint2_linear" x1="41.492" y1="19.1085" x2="90.07" y2="18.8951" gradientUnits="userSpaceOnUse">
<stop stop-color="white"/>
<stop offset="1" stop-color="white" stop-opacity="0"/>
</linearGradient>
<linearGradient id="paint3_linear" x1="41.492" y1="19.1085" x2="90.07" y2="18.8951" gradientUnits="userSpaceOnUse">
<stop stop-color="white"/>
<stop offset="1" stop-color="white" stop-opacity="0"/>
</linearGradient>
<linearGradient id="paint4_linear" x1="41.492" y1="19.1085" x2="90.07" y2="18.8951" gradientUnits="userSpaceOnUse">
<stop stop-color="white"/>
<stop offset="1" stop-color="white" stop-opacity="0"/>
</linearGradient>
<linearGradient id="paint5_linear" x1="66.2697" y1="37.8593" x2="66.2697" y2="49.4652" gradientUnits="userSpaceOnUse">
<stop stop-color="white"/>
<stop offset="1" stop-color="white" stop-opacity="0"/>
</linearGradient>
<clipPath id="clip0">
<rect width="131.206" height="12.5" fill="white" transform="translate(0 37.5)"/>
</clipPath>
</defs>
</svg>
