<svg width="123" height="22" viewBox="0 0 123 22" fill="none" xmlns="http://www.w3.org/2000/svg">
<path d="M116.718 1.4397V13.9688C116.718 16.3689 118.664 18.3145 121.064 18.3145H122.343" stroke="white" stroke-width="3.03448"/>
<path d="M113.343 7.0647H122.343" stroke="white" stroke-width="3.03448"/>
<path d="M55.1248 1.4397L55.1248 19.4395" stroke="white" stroke-width="3.03448"/>
<rect x="55.5172" y="7.45682" width="10.4653" height="10.4653" rx="5.23267" stroke="white" stroke-width="3.03448"/>
<mask id="mask0" mask-type="alpha" maskUnits="userSpaceOnUse" x="69" y="5" width="21" height="15">
<rect x="69.7498" y="5.93994" width="20.2497" height="13.4998" rx="6.74991" fill="url(#paint0_linear)"/>
</mask>
<g mask="url(#mask0)">
<rect opacity="0.9" x="71.267" y="7.45718" width="17.2153" height="10.4653" rx="5.23267" stroke="white" stroke-width="3.03448"/>
</g>
<rect x="78.0175" y="7.45718" width="17.2153" height="10.4653" rx="5.23267" stroke="white" stroke-width="3.03448"/>
<path d="M110.811 7.0647H102.726C101.173 7.0647 99.9136 8.32388 99.9136 9.87716V9.87716C99.9136 11.4304 101.173 12.6896 102.726 12.6896H104.897" stroke="white" stroke-width="3.03448"/>
<path d="M104.194 12.6897H107.467C109.02 12.6897 110.28 13.9489 110.28 15.5022V15.5022C110.28 17.0554 109.02 18.3146 107.467 18.3146H98.9989" stroke="white" stroke-width="3.03448"/>
<path opacity="0.7" d="M6.034 15.6917C5.194 15.6917 4.44733 15.5564 3.794 15.2857C3.14067 15.0057 2.58533 14.623 2.128 14.1377C1.67067 13.6524 1.32067 13.0877 1.078 12.4437C0.844667 11.7997 0.728 11.1184 0.728 10.3997V10.0917C0.728 9.4477 0.84 8.8177 1.064 8.2017C1.288 7.5857 1.61467 7.03036 2.044 6.5357C2.48267 6.04103 3.01467 5.64903 3.64 5.3597C4.27467 5.07036 4.998 4.9257 5.81 4.9257C6.678 4.9257 7.45267 5.0937 8.134 5.4297C8.81533 5.75636 9.36133 6.2137 9.772 6.8017C10.1827 7.38036 10.4207 8.05236 10.486 8.8177H8.778C8.722 8.3137 8.54933 7.88903 8.26 7.5437C7.98 7.19836 7.62533 6.93703 7.196 6.7597C6.776 6.57303 6.314 6.4797 5.81 6.4797C5.306 6.4797 4.844 6.57303 4.424 6.7597C4.01333 6.93703 3.65867 7.1937 3.36 7.5297C3.06133 7.85636 2.83267 8.25303 2.674 8.7197C2.51533 9.17703 2.436 9.69036 2.436 10.2597C2.436 10.8944 2.52 11.4544 2.688 11.9397C2.86533 12.425 3.11267 12.8357 3.43 13.1717C3.74733 13.4984 4.12533 13.7504 4.564 13.9277C5.012 14.0957 5.502 14.1797 6.034 14.1797C6.77133 14.1797 7.41533 14.0304 7.966 13.7317C8.526 13.4237 8.946 13.027 9.226 12.5417L8.792 14.1797V11.3377H10.36V13.6897C9.90267 14.3244 9.30533 14.819 8.568 15.1737C7.84 15.519 6.99533 15.6917 6.034 15.6917ZM5.684 11.6737V10.3577H11.214V11.6737H5.684ZM12.8524 15.4397V7.8937H14.1544V11.0437H14.0984C14.0984 9.96103 14.3364 9.1537 14.8124 8.6217C15.2884 8.08036 15.9931 7.8097 16.9264 7.8097H17.1924V9.2517H16.6884C15.9791 9.2517 15.4331 9.44303 15.0504 9.8257C14.6771 10.199 14.4904 10.7357 14.4904 11.4357V15.4397H12.8524ZM21.2393 15.6637C20.3526 15.6637 19.6713 15.379 19.1953 14.8097C18.7193 14.231 18.4813 13.3817 18.4813 12.2617V7.8937H20.1193V12.4857C20.1193 13.0084 20.264 13.4237 20.5533 13.7317C20.8426 14.0304 21.2346 14.1797 21.7293 14.1797C22.2333 14.1797 22.644 14.021 22.9613 13.7037C23.288 13.377 23.4513 12.9337 23.4513 12.3737V7.8937H25.0893V15.4397H23.7873V12.2197H23.9553C23.9553 12.9757 23.8526 13.6104 23.6473 14.1237C23.4513 14.6277 23.1573 15.0104 22.7653 15.2717C22.3826 15.533 21.8973 15.6637 21.3093 15.6637H21.2393ZM27.5224 18.2397V7.8937H28.8244V11.1557L28.5724 11.1417C28.619 10.3484 28.787 9.69503 29.0764 9.1817C29.3657 8.66836 29.7484 8.2857 30.2244 8.0337C30.7004 7.7817 31.223 7.6557 31.7924 7.6557C32.3337 7.6557 32.8237 7.75836 33.2624 7.9637C33.701 8.1597 34.079 8.43503 34.3964 8.7897C34.7137 9.14436 34.9517 9.55503 35.1104 10.0217C35.2784 10.4884 35.3624 10.9924 35.3624 11.5337V11.7997C35.3624 12.3317 35.2784 12.8357 35.1104 13.3117C34.9424 13.7784 34.6997 14.189 34.3824 14.5437C34.065 14.8984 33.687 15.1784 33.2484 15.3837C32.8097 15.589 32.3197 15.6917 31.7784 15.6917C31.2277 15.6917 30.7144 15.575 30.2384 15.3417C29.7624 15.1084 29.3704 14.735 29.0624 14.2217C28.7544 13.7084 28.5817 13.041 28.5444 12.2197L29.1604 13.2557V18.2397H27.5224ZM31.4284 14.2777C31.8857 14.2777 32.287 14.1704 32.6324 13.9557C32.9777 13.7317 33.2437 13.4237 33.4304 13.0317C33.6264 12.6304 33.7244 12.173 33.7244 11.6597C33.7244 11.1464 33.6264 10.6937 33.4304 10.3017C33.2437 9.9097 32.9777 9.60636 32.6324 9.3917C32.2964 9.1677 31.895 9.0557 31.4284 9.0557C31.0177 9.0557 30.635 9.14903 30.2804 9.3357C29.9257 9.52236 29.641 9.79303 29.4264 10.1477C29.2117 10.493 29.1044 10.913 29.1044 11.4077V12.0097C29.1044 12.4857 29.2117 12.8964 29.4264 13.2417C29.6504 13.5777 29.9397 13.8344 30.2944 14.0117C30.649 14.189 31.027 14.2777 31.4284 14.2777ZM40.7851 15.6917C40.1224 15.6917 39.5391 15.5844 39.0351 15.3697C38.5311 15.1457 38.1064 14.8517 37.7611 14.4877C37.4157 14.1237 37.1544 13.713 36.9771 13.2557C36.7997 12.789 36.7111 12.3084 36.7111 11.8137V11.5337C36.7111 11.039 36.7997 10.5584 36.9771 10.0917C37.1637 9.62503 37.4297 9.2097 37.7751 8.8457C38.1297 8.47236 38.5591 8.17836 39.0631 7.9637C39.5671 7.74903 40.1411 7.6417 40.7851 7.6417C41.4291 7.6417 41.9984 7.74903 42.4931 7.9637C42.9971 8.17836 43.4264 8.47236 43.7811 8.8457C44.1357 9.2097 44.4017 9.62503 44.5791 10.0917C44.7657 10.5584 44.8591 11.039 44.8591 11.5337V11.8137C44.8591 12.3084 44.7704 12.789 44.5931 13.2557C44.4157 13.713 44.1544 14.1237 43.8091 14.4877C43.4637 14.8517 43.0391 15.1457 42.5351 15.3697C42.0311 15.5844 41.4477 15.6917 40.7851 15.6917ZM40.7851 14.2637C41.2984 14.2637 41.7371 14.1517 42.1011 13.9277C42.4651 13.6944 42.7404 13.3817 42.9271 12.9897C43.1231 12.5977 43.2211 12.159 43.2211 11.6737C43.2211 11.179 43.1231 10.7357 42.9271 10.3437C42.7311 9.9517 42.4511 9.6437 42.0871 9.4197C41.7231 9.18636 41.2891 9.0697 40.7851 9.0697C40.2811 9.0697 39.8471 9.18636 39.4831 9.4197C39.1191 9.6437 38.8391 9.9517 38.6431 10.3437C38.4471 10.7357 38.3491 11.179 38.3491 11.6737C38.3491 12.159 38.4424 12.5977 38.6291 12.9897C38.8251 13.3817 39.1051 13.6944 39.4691 13.9277C39.8331 14.1517 40.2717 14.2637 40.7851 14.2637Z" fill="#6B7481"/>
<defs>
<linearGradient id="paint0_linear" x1="69.0466" y1="10.4399" x2="85.9214" y2="9.52583" gradientUnits="userSpaceOnUse">
<stop stop-color="white"/>
<stop offset="1" stop-color="#C4C4C4" stop-opacity="0"/>
</linearGradient>
</defs>
</svg>
